<mxfile host="65bd71144e">
    <diagram id="BnefudGRWZ_eeSUTzbuS" name="Page-1">
        <mxGraphModel dx="548" dy="1174" grid="0" gridSize="10" guides="1" tooltips="1" connect="1" arrows="1" fold="1" page="0" pageScale="1" pageWidth="850" pageHeight="1100" background="#006666" math="0" shadow="0">
            <root>
                <mxCell id="0"/>
                <mxCell id="1" parent="0"/>
                <mxCell id="9" value="" style="edgeStyle=none;shape=flexArrow;html=1;fontSize=36;entryX=0.828;entryY=0.006;entryDx=0;entryDy=0;entryPerimeter=0;" edge="1" parent="1" source="2" target="8">
                    <mxGeometry relative="1" as="geometry"/>
                </mxCell>
                <object label="&lt;font style=&quot;font-size: 24px;&quot;&gt;A , B , i , C, i ,D, E, F, i&lt;/font&gt;" id="2">
                    <mxCell style="whiteSpace=wrap;html=1;fillColor=#fa6800;fontColor=#000000;strokeColor=#C73500;rounded=1;shadow=0;glass=0;" parent="1" vertex="1">
                        <mxGeometry x="89" y="24" width="254" height="60" as="geometry"/>
                    </mxCell>
                </object>
                <mxCell id="3" value="&lt;font color=&quot;#ffffff&quot; style=&quot;font-size: 36px;&quot;&gt;nums&lt;/font&gt;" style="text;strokeColor=#C73500;align=center;fillColor=none;html=1;verticalAlign=middle;whiteSpace=wrap;rounded=0;fontColor=#000000;shadow=0;" parent="1" vertex="1">
                    <mxGeometry x="174" y="-10" width="107" height="30" as="geometry"/>
                </mxCell>
                <mxCell id="4" value="&lt;font style=&quot;font-size: 24px;&quot;&gt;i&lt;/font&gt;" style="whiteSpace=wrap;html=1;fillColor=#fa6800;fontColor=#000000;strokeColor=#C73500;rounded=1;shadow=0;glass=0;" parent="1" vertex="1">
                    <mxGeometry x="359" y="24" width="70" height="60" as="geometry"/>
                </mxCell>
                <mxCell id="5" value="&lt;font color=&quot;#ffffff&quot; style=&quot;&quot;&gt;&lt;font style=&quot;font-size: 36px;&quot;&gt;val&lt;/font&gt;&lt;br&gt;&lt;/font&gt;" style="text;strokeColor=#C73500;align=center;fillColor=none;html=1;verticalAlign=middle;whiteSpace=wrap;rounded=0;fontColor=#000000;" parent="1" vertex="1">
                    <mxGeometry x="359" y="-10" width="71" height="30" as="geometry"/>
                </mxCell>
                <mxCell id="8" value="&lt;font style=&quot;font-size: 24px;&quot;&gt;A, B, C, D, E&amp;nbsp;&lt;/font&gt;" style="whiteSpace=wrap;html=1;fillColor=#fa6800;strokeColor=#C73500;fontColor=#000000;rounded=1;shadow=0;glass=0;" vertex="1" parent="1">
                    <mxGeometry x="91" y="172" width="151" height="60" as="geometry"/>
                </mxCell>
                <mxCell id="10" value="" style="whiteSpace=wrap;html=1;fillColor=#000000;strokeColor=#C73500;fontColor=#000000;rounded=1;shadow=0;glass=0;" vertex="1" parent="1">
                    <mxGeometry x="234" y="172" width="109" height="60" as="geometry"/>
                </mxCell>
                <mxCell id="11" value="" style="shape=curlyBracket;whiteSpace=wrap;html=1;rounded=1;flipH=1;labelPosition=right;verticalLabelPosition=middle;align=left;verticalAlign=middle;shadow=0;fontSize=24;fillColor=#000000;rotation=90;" vertex="1" parent="1">
                    <mxGeometry x="154.5" y="176.5" width="20" height="143" as="geometry"/>
                </mxCell>
                <mxCell id="13" value="&lt;font color=&quot;#ffffff&quot;&gt;&lt;span style=&quot;font-size: 36px;&quot;&gt;return this length&lt;/span&gt;&lt;/font&gt;" style="text;strokeColor=#C73500;align=center;fillColor=none;html=1;verticalAlign=middle;whiteSpace=wrap;rounded=0;fontColor=#000000;shadow=0;" vertex="1" parent="1">
                    <mxGeometry x="76" y="265" width="171" height="83" as="geometry"/>
                </mxCell>
            </root>
        </mxGraphModel>
    </diagram>
</mxfile>